<svg width="24" height="24" viewBox="0 0 24 24" fill="none" xmlns="http://www.w3.org/2000/svg">
<path fill-rule="evenodd" clip-rule="evenodd" d="M19.25 4H5.5C5.10218 4 4.72064 4.15804 4.43934 4.43934C4.15804 4.72064 4 5.10218 4 5.5V19.25H3.125C2.82663 19.25 2.54048 19.1315 2.3295 18.9205C2.11853 18.7095 2 18.4234 2 18.125V3.3125C2 2.9644 2.13828 2.63056 2.38442 2.38442C2.63056 2.13828 2.9644 2 3.3125 2H18.125C18.4234 2 18.7095 2.11853 18.9205 2.3295C19.1315 2.54048 19.25 2.82663 19.25 3.125V4ZM7.04348 22H20.9565C21.2333 22 21.4987 21.8901 21.6944 21.6944C21.8901 21.4987 22 21.2333 22 20.9565V7.04348C22 6.76673 21.8901 6.50132 21.6944 6.30563C21.4987 6.10994 21.2333 6 20.9565 6H6.69565C6.51115 6 6.33421 6.07329 6.20375 6.20375C6.07329 6.33421 6 6.51115 6 6.69565V20.9565C6 21.2333 6.10994 21.4987 6.30563 21.6944C6.50132 21.8901 6.76673 22 7.04348 22Z" fill="white"/>
</svg>
