<svg fill="none" height="16" viewBox="0 0 18 16" width="18" xmlns="http://www.w3.org/2000/svg"><path d="m18 1.89415c-.6694.32123-1.3826.53416-2.1263.63754.7651-.49969 1.3489-1.28492 1.6234-2.231382-.7132.46523-1.5007.793842-2.34.977232-.6772-.788924-1.6425-1.27754-2.6955-1.27754-2.043 0-3.68773 1.81415-3.68773 4.03815 0 .32.02475.6277.08551.92062-3.06788-.16369-5.78251-1.77231-7.60613-4.22277-.318375.60431-.505125 1.296-.505125 2.04062 0 1.39815.658125 2.63753 1.639125 3.35507-.59288-.01231-1.1745-.20061-1.66725-.49723v.04431c0 1.96185 1.27912 3.59138 2.9565 3.96677-.30038.08984-.62775.13292-.9675.13292-.23625 0-.47475-.01477-.69862-.06892.47812 1.59876 1.83487 2.77416 3.44812 2.81226-1.2555 1.0745-2.84962 1.7219-4.575375 1.7219-.302625 0-.592875-.0148-.883125-.0554 1.63462 1.1532 3.57188 1.8117 5.661 1.8117 6.7905 0 10.503-6.15385 10.503-11.488 0-.17846-.0056-.35077-.0135-.52185.7324-.56861 1.3477-1.27877 1.8495-2.096z" fill="#fffefd"/></svg>